# xmcd
#
# Track frame offsets: 
#        187
#        21304
#        63293
#        85259
#        109273
#        130614
#        148776
#        168362
#        202063
#        232950
#
# Disc length: 3397 seconds
#
# Revision: 1
# Processed by: cddbd v1.5.2PL0 Copyright (c) Steve Scherf et al.
# Submitted via: ExactAudioCopy v0.99pb5
#
DISCID=870d430a
DTITLE=Mark Masters Ensemble - The Clifford Brown Project
DYEAR=2003
DGENRE=Capri Records
TTITLE0=Joy Spring
TTITLE1=Sweet Clifford
TTITLE2=Minor Mood
TTITLE3=LaRue
TTITLE4=Sandu
TTITLE5=Daahoud
TTITLE6=I Remember Clifford
TTITLE7=Bones for Jones
TTITLE8=Swingin'
TTITLE9=Joy Spring
EXTD=YEAR: 2003
EXTT0=
EXTT1=
EXTT2=
EXTT3=
EXTT4=
EXTT5=
EXTT6=
EXTT7=
EXTT8=
EXTT9=
PLAYORDER=
